HIERARCHY
ROOT hip
{
  OFFSET 0 0 0
  CHANNELS 6 Xposition Yposition Zposition Zrotation Yrotation Xrotation
  JOINT abdomen
  {
    OFFSET 0 20.6881 -0.73152
    CHANNELS 3 Zrotation Xrotation Yrotation
    JOINT chest
    {
      OFFSET 0 11.7043 -0.48768
      CHANNELS 3 Zrotation Xrotation Yrotation
      JOINT neck
      {
        OFFSET 0 22.1894 -2.19456
        CHANNELS 3 Zrotation Xrotation Yrotation
        JOINT head
        {
          OFFSET -0.24384 7.07133 1.2192
          CHANNELS 3 Zrotation Xrotation Yrotation
          JOINT leftEye
          {
            OFFSET 4.14528 8.04674 8.04672
            CHANNELS 3 Zrotation Xrotation Yrotation
            End Site
            {
              OFFSET 1 0 0
            }
          }
          JOINT rightEye
          {
            OFFSET -3.6576 8.04674 8.04672
            CHANNELS 3 Zrotation Xrotation Yrotation
            End Site
            {
              OFFSET 1 0 0
            }
          }
        }
      }
      JOINT rCollar
      {
        OFFSET -2.68224 19.2634 -4.8768
        CHANNELS 3 Zrotation Xrotation Yrotation
        JOINT rShldr
        {
          OFFSET -8.77824 -1.95073 1.46304
          CHANNELS 3 Zrotation Xrotation Yrotation
          JOINT rForeArm
          {
            OFFSET -28.1742 -1.7115 0.48768
            CHANNELS 3 Zrotation Xrotation Yrotation
            JOINT rHand
            {
              OFFSET -22.5879 0.773209 7.07136
              CHANNELS 3 Zrotation Xrotation Yrotation
              JOINT rThumb1
              {
                OFFSET -1.2192 -0.487915 3.41376
                CHANNELS 3 Zrotation Xrotation Yrotation
                JOINT rThumb2
                {
                  OFFSET -3.37035 -0.52449 3.41376
                  CHANNELS 3 Zrotation Xrotation Yrotation
                  End Site
                  {
                    OFFSET -1.78271 -1.18214 1.43049
                  }
                }
              }
              JOINT rIndex1
              {
                OFFSET -7.75947 0.938293 5.60832
                CHANNELS 3 Zrotation Xrotation Yrotation
                JOINT rIndex2
                {
                  OFFSET -2.54057 -0.884171 1.56538
                  CHANNELS 3 Zrotation Xrotation Yrotation
                  End Site
                  {
                    OFFSET -1.62519 -0.234802 1.16502
                  }
                }
              }
              JOINT rMid1
              {
                OFFSET -8.24714 1.18213 3.41376
                CHANNELS 3 Zrotation Xrotation Yrotation
                JOINT rMid2
                {
                  OFFSET -3.10165 -0.590103 1.0647
                  CHANNELS 3 Zrotation Xrotation Yrotation
                  End Site
                  {
                    OFFSET -2.48547 -0.328903 0.83742
                  }
                }
              }
              JOINT rRing1
              {
                OFFSET -8.82822 0.546677 1.51678
                CHANNELS 3 Zrotation Xrotation Yrotation
                JOINT rRing2
                {
                  OFFSET -2.60934 -0.819778 -0.0198488
                  CHANNELS 3 Zrotation Xrotation Yrotation
                  End Site
                  {
                    OFFSET -2.33842 -0.294052 0.168128
                  }
                }
              }
              JOINT rPinky1
              {
                OFFSET -8.27202 -0.0477905 -0.4584
                CHANNELS 3 Zrotation Xrotation Yrotation
                JOINT rPinky2
                {
                  OFFSET -1.82734 -0.647385 -0.700984
                  CHANNELS 3 Zrotation Xrotation Yrotation
                  End Site
                  {
                    OFFSET -1.69225 -0.51767 -0.607171
                  }
                }
              }
            }
          }
        }
      }
      JOINT lCollar
      {
        OFFSET 2.68224 19.2634 -4.8768
        CHANNELS 3 Zrotation Xrotation Yrotation
        JOINT lShldr
        {
          OFFSET 8.77824 -1.95073 1.46304
          CHANNELS 3 Zrotation Xrotation Yrotation
          JOINT lForeArm
          {
            OFFSET 28.1742 -1.7115 0.48768
            CHANNELS 3 Zrotation Xrotation Yrotation
            JOINT lHand
            {
              OFFSET 22.5879 0.773209 7.07136
              CHANNELS 3 Zrotation Xrotation Yrotation
              JOINT lThumb1
              {
                OFFSET 1.2192 -0.487915 3.41376
                CHANNELS 3 Zrotation Xrotation Yrotation
                JOINT lThumb2
                {
                  OFFSET 3.37035 -0.52449 3.41376
                  CHANNELS 3 Zrotation Xrotation Yrotation
                  End Site
                  {
                    OFFSET 1.78271 -1.18214 1.43049
                  }
                }
              }
              JOINT lIndex1
              {
                OFFSET 7.75947 0.938293 5.60832
                CHANNELS 3 Zrotation Xrotation Yrotation
                JOINT lIndex2
                {
                  OFFSET 2.54057 -0.884171 1.56538
                  CHANNELS 3 Zrotation Xrotation Yrotation
                  End Site
                  {
                    OFFSET 1.62519 -0.234802 1.16502
                  }
                }
              }
              JOINT lMid1
              {
                OFFSET 8.24714 1.18213 3.41376
                CHANNELS 3 Zrotation Xrotation Yrotation
                JOINT lMid2
                {
                  OFFSET 3.10165 -0.590103 1.0647
                  CHANNELS 3 Zrotation Xrotation Yrotation
                  End Site
                  {
                    OFFSET 2.48547 -0.328903 0.83742
                  }
                }
              }
              JOINT lRing1
              {
                OFFSET 8.82822 0.546677 1.51678
                CHANNELS 3 Zrotation Xrotation Yrotation
                JOINT lRing2
                {
                  OFFSET 2.60934 -0.819778 -0.0198488
                  CHANNELS 3 Zrotation Xrotation Yrotation
                  End Site
                  {
                    OFFSET 2.33842 -0.294052 0.168128
                  }
                }
              }
              JOINT lPinky1
              {
                OFFSET 8.27202 -0.0477905 -0.4584
                CHANNELS 3 Zrotation Xrotation Yrotation
                JOINT lPinky2
                {
                  OFFSET 1.82734 -0.647385 -0.700984
                  CHANNELS 3 Zrotation Xrotation Yrotation
                  End Site
                  {
                    OFFSET 1.69225 -0.51767 -0.607171
                  }
                }
              }
            }
          }
        }
      }
    }
  }
  JOINT rButtock
  {
    OFFSET -8.77824 4.35084 1.2192
    CHANNELS 3 Zrotation Xrotation Yrotation
    JOINT rThigh
    {
      OFFSET 0 -1.70687 -2.19456
      CHANNELS 3 Zrotation Xrotation Yrotation
      JOINT rShin
      {
        OFFSET 0 -36.8199 0.73152
        CHANNELS 3 Zrotation Xrotation Yrotation
        JOINT rFoot
        {
          OFFSET 0.73152 -45.1104 -5.12064
          CHANNELS 3 Zrotation Xrotation Yrotation
          End Site
          {
            OFFSET -1.1221 -3.69964 12.103
          }
        }
      }
    }
  }
  JOINT lButtock
  {
    OFFSET 8.77824 4.35084 1.2192
    CHANNELS 3 Zrotation Xrotation Yrotation
    JOINT lThigh
    {
      OFFSET 0 -1.70687 -2.19456
      CHANNELS 3 Zrotation Xrotation Yrotation
      JOINT lShin
      {
        OFFSET 0 -36.8199 0.73152
        CHANNELS 3 Zrotation Xrotation Yrotation
        JOINT lFoot
        {
          OFFSET -0.73152 -45.1104 -5.12064
          CHANNELS 3 Zrotation Xrotation Yrotation
          End Site
          {
            OFFSET 1.1221 -3.69964 12.103
          }
        }
      }
    }
  }
}
MOTION
Frames:	4
Frame Time:	0.03333
2.0412680692970753 49.40521419048309 1.1888491921126842 -171.30201721191406 75.01448822021484 -164.30734252929688 -6.455976963043213 14.194740295410156 17.627851486206055 -4.518913745880127 -12.251808166503906 4.348343372344971 1.3670752048492432 14.952181816101074 13.11833667755127 -0.915429413318634 -19.72138023376465 25.191434860229492 0.19781658053398132 0.22977694869041443 0.03666839376091957 0.05238762125372887 0.10110048204660416 -0.07025650143623352 -0.16436149179935455 -0.027757883071899414 0.047821301966905594 11.37514877319336 64.56259155273438 56.45240020751953 -26.473995208740234 -45.413211822509766 93.60984802246094 -0.15067459642887115 10.012319564819336 1.8227651119232178 -0.12349740415811539 -0.027169276028871536 -0.04492530599236488 -0.05489454045891762 0.06531789153814316 -0.04050947725772858 0.06150844320654869 -0.016901711001992226 -0.013357410207390785 7.6476006507873535 5.60957145690918 0.5782685279846191 0.02034648321568966 0.16345955431461334 -0.01358429528772831 3.0222866535186768 1.027466893196106 0.17433813214302063 0.012049372307956219 0.1046190857887268 -0.09191368520259857 10.402602195739746 0.6017475128173828 -0.249679833650589 -0.16563430428504944 -0.08372854441404343 -0.06347791105508804 2.228100538253784 -0.8156679272651672 -0.3330554664134979 0.007056735921651125 0.05433536693453789 -0.1198541522026062 -55.736507415771484 1.4430525302886963 -10.550677299499512 26.122385025024414 -47.32289123535156 -97.20741271972656 2.1615357398986816 -40.456111907958984 6.374256610870361 -0.09330645948648453 -0.03517163544893265 -0.0389767587184906 -0.13412682712078094 -0.06827385723590851 0.043535929173231125 0.012846852652728558 -0.05179493874311447 -0.14247380197048187 -7.815106391906738 5.4666523933410645 -0.35405609011650085 -0.040092237293720245 0.06723660975694656 -0.1346794068813324 -2.960627317428589 0.8263675570487976 -0.2445429414510727 -0.13879822194576263 0.05139158293604851 0.009343341924250126 -10.345198631286621 0.7558580040931702 -0.17433136701583862 -0.08523161709308624 -0.0660909116268158 -0.05877460911870003 -2.1865108013153076 -0.7637237310409546 0.15597544610500336 -0.005465892609208822 0.02247200906276703 -0.07734516263008118 -63.444610595703125 -42.23919677734375 -47.10235595703125 -32.373008728027344 88.43089294433594 33.88827896118164 -1.6241639852523804 -20.572669982910156 -2.1206328868865967 -0.03404939919710159 0.03147120401263237 -0.048484429717063904 70.59222412109375 -52.949344635009766 52.56841278076172 15.589958190917969 86.66968536376953 -16.356840133666992 -5.515986442565918 -20.74724578857422 -4.5177178382873535
2.082536742091179 50.883322954177856 0.9470663964748383 -170.23721313476562 73.13098907470703 -161.58924865722656 -6.193948745727539 13.68755054473877 17.164592742919922 -4.301694393157959 -12.26856803894043 4.217259407043457 1.234022855758667 14.908210754394531 12.651909828186035 -0.6067919731140137 -19.526145935058594 24.63336181640625 0.19029411673545837 0.20018760859966278 0.017738768830895424 0.03894710913300514 0.12517313659191132 -0.05650506541132927 -0.13466188311576843 -0.028138114139437675 0.0794055387377739 13.654927253723145 63.81306838989258 54.63014221191406 -26.838407516479492 -45.11174011230469 92.87845611572266 -0.08921545743942261 9.319281578063965 1.7029030323028564 -0.15551717579364777 -0.027121499180793762 -0.051669858396053314 -0.052481427788734436 0.05446634069085121 -0.06854929774999619 0.024432627484202385 -0.02291005849838257 0.020168650895357132 7.61270809173584 5.585757732391357 0.5759589672088623 0.0014228119980543852 0.21079660952091217 -0.04453740641474724 2.9784369468688965 0.9501281380653381 0.15394273400306702 -0.025293631479144096 0.12228962033987045 -0.07768748700618744 10.433660507202148 0.5837293267250061 -0.20057596266269684 -0.13681532442569733 -0.08321231603622437 -0.02997543476521969 2.291550636291504 -0.8266996741294861 -0.33172285556793213 0.004128647036850452 0.030143938958644867 -0.11458764225244522 -55.92570877075195 1.8634881973266602 -9.828625679016113 26.063154220581055 -47.12108612060547 -96.77520751953125 2.3092291355133057 -41.29777908325195 6.538719654083252 -0.08052604645490646 0.0363135039806366 -0.05540816858410835 -0.11979370564222336 -0.07544932514429092 0.09552817791700363 0.06038537248969078 0.0006604131776839495 -0.0915568396449089 -7.833652973175049 5.443726062774658 -0.360777348279953 -0.021409207955002785 0.0633852556347847 -0.07084941864013672 -2.9356791973114014 0.7917057275772095 -0.22762946784496307 -0.15183125436306 -0.02412617951631546 0.006354345940053463 -10.308101654052734 0.7387064695358276 -0.18095166981220245 -0.06462562829256058 -0.029123416170477867 -0.06686971336603165 -2.1606597900390625 -0.7719219326972961 0.1154971495270729 -0.0555114783346653 0.05076826363801956 -0.07974651455879211 -63.479835510253906 -42.116798400878906 -47.26388168334961 -25.025634765625 87.85497283935547 26.491802215576172 -1.610497236251831 -20.56311798095703 -1.640756607055664 -0.007331119850277901 0.08870092034339905 -0.06780485063791275 72.99776458740234 -53.3566780090332 54.339599609375 20.706422805786133 87.27651977539062 -21.471113204956055 -6.069404125213623 -20.923381805419922 -4.936636447906494
2.082981448620558 51.51680111885071 0.7464312948286533 -169.16690063476562 74.52653503417969 -161.66616821289062 -6.177256107330322 13.300190925598145 17.41010093688965 -4.536376953125 -12.313920021057129 4.380825996398926 1.3588155508041382 14.657509803771973 13.102126121520996 -1.2109168767929077 -19.371681213378906 25.341936111450195 0.1434965282678604 0.24757279455661774 0.04257244989275932 0.06773214042186737 0.07607243210077286 -0.06511016935110092 -0.08280062675476074 -0.04449528455734253 0.08838393539190292 8.89239501953125 63.665687561035156 59.0323486328125 -26.67855453491211 -45.324100494384766 93.33908081054688 -0.12115746736526489 10.691603660583496 1.9443660974502563 -0.19651943445205688 0.006980867125093937 -0.013122336007654667 -0.05569538101553917 0.07461604475975037 -0.050082847476005554 -0.012291128747165203 -0.03002909943461418 -0.05038025975227356 7.666269302368164 5.60613489151001 0.5058415532112122 9.850091373664327e-06 0.21129396557807922 -0.04261758551001549 2.9676175117492676 0.9393808841705322 0.18068809807300568 0.010406475514173508 0.14771123230457306 -0.046299465000629425 10.410613059997559 0.5556210279464722 -0.09793674200773239 -0.06186506152153015 -0.054817549884319305 -0.05933450534939766 2.220428943634033 -0.8154410719871521 -0.2566896080970764 0.004472003784030676 0.03774629160761833 -0.13164038956165314 -55.99654006958008 1.1659516096115112 -10.630162239074707 26.219730377197266 -46.98154830932617 -96.80790710449219 2.1873128414154053 -39.80207061767578 6.215586185455322 -0.03925890848040581 0.050823893398046494 -0.023023288697004318 -0.07869564741849899 -0.07296697050333023 0.018331242725253105 0.09526006877422333 -0.08374578505754471 -0.11565893143415451 -7.751650810241699 5.4348978996276855 -0.33208322525024414 0.030653217807412148 0.07162446528673172 -0.01604887843132019 -2.8822503089904785 0.8218626976013184 -0.20336681604385376 -0.07291191816329956 -0.003352618310600519 0.028382746502757072 -10.32443618774414 0.7945787906646729 -0.10470472276210785 -0.0991826131939888 -0.021307483315467834 -0.09536037594079971 -2.1961679458618164 -0.7179659605026245 0.1249246895313263 -0.0878017246723175 0.07147892564535141 -0.056555986404418945 -65.43128967285156 -40.98244857788086 -48.49287414550781 -48.820091247558594 88.53740692138672 50.37419128417969 -1.354730486869812 -21.015522003173828 -1.191867709159851 -0.04830640181899071 0.03336332365870476 -0.019114060327410698 77.90754699707031 -53.158836364746094 59.832305908203125 92.7764892578125 89.16889190673828 -93.78379821777344 -6.72061014175415 -21.90439224243164 -6.629909515380859
2.0096110180020332 50.44730305671692 0.5807720124721527 -168.91366577148438 76.67577362060547 -162.12879943847656 -6.202277660369873 13.145739555358887 17.72784996032715 -4.79689884185791 -12.50214958190918 4.4448018074035645 1.4321602582931519 14.267590522766113 13.399086952209473 -1.3940393924713135 -19.17762565612793 25.611289978027344 0.11536376923322678 0.19470475614070892 0.1447872817516327 0.04805058240890503 0.023752501234412193 -0.03961242735385895 -0.02107217162847519 -0.008175215683877468 0.07985583692789078 5.836838245391846 63.86838912963867 61.9354248046875 -26.538869857788086 -45.55744934082031 93.82070922851562 -0.11468392610549927 12.228489875793457 1.9840092658996582 -0.15886759757995605 -0.01078579667955637 0.06107629835605621 -0.04785552993416786 0.07826027274131775 -0.04228382930159569 -0.032971564680337906 -0.07960756868124008 -0.056868698447942734 7.705329418182373 5.5930962562561035 0.4629664421081543 -0.044266920536756516 0.157790407538414 -0.037870991975069046 2.9674506187438965 0.9615426063537598 0.1349981278181076 0.020632488653063774 0.026404591277241707 -0.04902001470327377 10.358742713928223 0.6178455948829651 -0.09505555033683777 -0.021337810903787613 -0.03896484151482582 -0.06279069930315018 2.209367513656616 -0.7663828730583191 -0.269154816865921 -0.007733380887657404 0.025453072041273117 -0.09646304696798325 -55.7791862487793 1.2759296894073486 -12.19647216796875 26.41193962097168 -46.389015197753906 -95.86695098876953 2.0844638347625732 -37.98775863647461 6.079240798950195 -0.010848605073988438 0.017950627952814102 0.0011877359356731176 0.006944572553038597 -0.06321932375431061 -0.015548983588814735 0.11420708894729614 -0.1461450755596161 -0.12214066833257675 -7.713521957397461 5.4352264404296875 -0.3552664816379547 0.06421633809804916 0.07914302498102188 -0.019626712426543236 -2.863240957260132 0.8558991551399231 -0.17683899402618408 -0.08754608780145645 -0.01909516751766205 0.031022217124700546 -10.322656631469727 0.7636817097663879 -0.03930128365755081 -0.05546554550528526 -0.05362401157617569 -0.08001580834388733 -2.229224443435669 -0.7195084095001221 0.13035690784454346 -0.09672577679157257 0.05270332098007202 -0.016466571018099785 -66.80262756347656 -40.086509704589844 -49.64081954956055 -97.18109893798828 88.94686126708984 98.701171875 -1.2368379831314087 -21.5421142578125 -1.6921799182891846 -0.04603791981935501 -0.04946516826748848 -0.023689042776823044 79.85562896728516 -52.118896484375 62.0225944519043 131.9074249267578 88.82164001464844 -132.9393310546875 -6.668976306915283 -22.55029296875 -7.167679786682129
